<svg width="124" height="125" xmlns="http://www.w3.org/2000/svg" xmlns:xlink="http://www.w3.org/1999/xlink" xml:space="preserve" overflow="hidden"><g transform="translate(-503 -1565)"><path d="M558.633 1645.5 508.367 1645.5C506.192 1645.5 504.5 1646.84 504.5 1648.56L504.5 1675.89C504.5 1677.61 506.192 1678.94 508.367 1678.94 508.367 1678.94 508.367 1678.94 508.367 1678.94L527.458 1678.94 527.458 1682.77 519 1682.77 519 1688.5 548 1688.5 548 1682.77 539.542 1682.77 539.542 1678.94 558.633 1678.94C560.808 1678.94 562.5 1677.61 562.5 1675.89L562.5 1675.89 562.5 1648.56C562.5 1646.84 560.808 1645.5 558.633 1645.5ZM555.25 1673.21 511.75 1673.21 511.75 1651.23 555.25 1651.23 555.25 1673.21Z" stroke="#212428" stroke-width="3.4375" stroke-miterlimit="8" fill-rule="evenodd"/><path d="M590.546 1639.5C592.135 1641.08 592.929 1643.15 592.929 1645.09 592.929 1648.74 590.228 1652.03 586.098 1653.73L586.098 1648.74 574.5 1657.74 586.098 1666.5 586.098 1661.51C598.013 1659.08 605.004 1649.72 601.667 1640.59 601.508 1640.23 601.349 1639.86 601.191 1639.5L590.546 1639.5Z" stroke="#212428" stroke-width="3.4375" stroke-miterlimit="8" fill-rule="evenodd"/><path d="M516.027 1634.5C514.801 1633.24 513.729 1630.72 513.729 1628.7 513.729 1624.91 516.333 1621.51 520.317 1619.74L520.317 1624.91 531.5 1615.58 520.317 1606.5 520.317 1611.67C508.827 1614.19 502.086 1623.91 505.303 1633.36 505.456 1633.74 505.61 1634.12 505.763 1634.5L516.027 1634.5Z" stroke="#212428" stroke-width="3.4375" stroke-miterlimit="8" fill-rule="evenodd"/><g><g><g><path d="M56.25 27.1875 56.25 14.0625 50 14.0625 50 21.25 37.5 9.37499 37.5 9.37499 4.6875 40.625 8.20312 43.5937 37.5 15.7812 37.5 15.7812 66.7968 43.5937 70.3124 40.625Z" stroke="#212428" stroke-width="0.781156" transform="matrix(1.28 0 0 1 531 1565)"/><path d="M14.0625 42.4218 14.0625 65.6249 32.8125 65.6249 32.8125 46.0937 42.1875 46.0937 42.1875 65.6249 60.9375 65.6249 60.9375 42.4218 37.5 20.1562 14.0625 42.4218ZM28.125 55.4687 18.75 55.4687 18.75 46.0937 28.125 46.0937 28.125 55.4687ZM46.875 46.0937 56.25 46.0937 56.25 55.4687 46.875 55.4687 46.875 46.0937Z" stroke="#212428" stroke-width="0.781156" transform="matrix(1.28 0 0 1 531 1565)"/></g></g></g></g></svg>