<svg width="125" height="125" xmlns="http://www.w3.org/2000/svg" xmlns:xlink="http://www.w3.org/1999/xlink" xml:space="preserve" overflow="hidden"><g transform="translate(-2407 -1652)"><path d="M2531.5 1700.48C2531.5 1683.94 2525.67 1659.69 2513.14 1659.69L2486.36 1659.69C2485.69 1657.56 2484.54 1655.92 2483.14 1655.1 2481.71 1654.18 2480.11 1654.18 2478.68 1655.1 2477.54 1653.45 2476.06 1652.53 2474.51 1652.5 2472.78 1652.48 2471.12 1653.61 2469.93 1655.62 2468.34 1654.51 2466.53 1654.51 2464.93 1655.62 2463.75 1656.47 2462.76 1657.89 2462.12 1659.69 2462.12 1659.69 2422.72 1659.69 2422.6 1659.83 2414.05 1661.36 2407.5 1678.38 2407.5 1699.87 2407.5 1722.39 2414.69 1740.05 2423.87 1740.05L2458.83 1740.05 2458.83 1775.5 2473.71 1757.18 2488.59 1775.5 2488.59 1740.05 2523.55 1740.05C2525.2 1740.05 2526.53 1737.93 2526.53 1735.32 2526.53 1732.71 2525.2 1730.59 2523.55 1730.59 2519.25 1730.9 2515.59 1725.62 2515.37 1718.77L2524.3 1718.77C2527.78 1718.77 2531.5 1714.05 2531.5 1700.48ZM2474.22 1669.57C2481.43 1669.57 2487.28 1678.86 2487.28 1690.32 2487.28 1701.78 2481.43 1711.07 2474.22 1711.07 2467.03 1711.07 2461.19 1701.84 2461.15 1690.41 2461.12 1678.95 2466.94 1669.62 2474.16 1669.57 2474.18 1669.57 2474.2 1669.57 2474.22 1669.57ZM2455.95 1669.14C2455.92 1669.74 2455.92 1670.34 2455.95 1670.94 2452.77 1672.92 2451.2 1678.62 2452.43 1683.68 2451.36 1685.51 2450.76 1687.91 2450.74 1690.41 2450.76 1693.1 2451.47 1695.66 2452.7 1697.5 2452 1700.03 2452 1702.9 2452.7 1705.42 2453.11 1706.95 2453.76 1708.29 2454.58 1709.32L2437.88 1709.32C2438.92 1705.6 2439.47 1701.58 2439.49 1697.5 2439.49 1685.68 2437.67 1675.85 2434.62 1669.14ZM2423.87 1730.59C2418.84 1730.59 2413.45 1718.25 2413.45 1699.87 2413.45 1681.48 2418.84 1669.14 2423.87 1669.14 2429.48 1669.14 2433.54 1680.96 2433.54 1697.5 2433.54 1697.5 2433.43 1709.32 2429.07 1709.32 2426.96 1709.32 2424.61 1703.77 2424.61 1696.32 2424.6 1694.73 2424.71 1693.15 2424.92 1691.59 2425.28 1689.04 2424.27 1686.51 2422.66 1685.94 2421.06 1685.38 2419.46 1686.98 2419.11 1689.54 2418.8 1691.77 2418.65 1694.04 2418.66 1696.32 2418.66 1708.92 2423.24 1718.77 2429.07 1718.77L2458.83 1718.77 2458.83 1730.59ZM2473.71 1745.22 2464.78 1756.21 2464.78 1724.66C2465.13 1725 2465.49 1725.3 2465.87 1725.53 2467.31 1726.42 2468.9 1726.42 2470.33 1725.53 2471.48 1727.23 2472.98 1728.18 2474.54 1728.23 2476.28 1728.24 2477.94 1727.11 2479.13 1725.11 2480.24 1725.85 2481.45 1726.08 2482.64 1725.77L2482.64 1756.21ZM2488.59 1730.59 2488.59 1719.6C2489.04 1719.4 2489.48 1719.12 2489.9 1718.77L2509.42 1718.77C2509.42 1723.02 2510.26 1727.15 2511.82 1730.59ZM2493.65 1709.32C2495.06 1708.28 2496.16 1706.41 2496.71 1704.1 2497.27 1701.82 2497.27 1699.29 2496.71 1697.01 2497.76 1695.21 2498.35 1692.84 2498.35 1690.39 2498.36 1687.63 2497.65 1685 2496.39 1683.11 2497.08 1680.58 2497.08 1677.7 2496.39 1675.17 2495.77 1672.89 2494.63 1671.07 2493.19 1670.11 2493.16 1669.78 2493.12 1669.46 2493.05 1669.14L2513.14 1669.14C2519.09 1669.14 2522.93 1679.42 2524.55 1689.04 2526.44 1700.34 2525.19 1708.49 2524.3 1709.32Z" stroke="#212428" stroke-width="1.25338" stroke-miterlimit="8" fill-rule="evenodd"/></g></svg>