<svg width="790" height="791" xmlns="http://www.w3.org/2000/svg" xmlns:xlink="http://www.w3.org/1999/xlink" xml:space="preserve" overflow="hidden"><defs><clipPath id="clip0"><rect x="511" y="756" width="790" height="791"/></clipPath></defs><g clip-path="url(#clip0)" transform="translate(-511 -756)"><path d="M755.287 1022.44 535.292 1498.16C524.207 1484.92 505.533 1444.51 517.213 1390.41L726.137 927.6 755.287 1022.44Z" stroke="#01E6E0" stroke-width="4.58333" stroke-miterlimit="8" fill="#01E6E0" fill-rule="evenodd"/><path d="M141.014 79.7455 826.988 76.5598C817.434 98.9732 779.876 147.713 709.261 165.379L114.138 173.08C20.7833 154.725 2.3699 63.2672 0 0 56.34 58.9843 90.4136 72.8701 141.014 79.7455Z" stroke="#00C4DA" stroke-width="4.58333" stroke-miterlimit="8" fill="#00C4DA" fill-rule="evenodd" transform="matrix(0.434891 0.900483 0.900483 -0.434891 836.641 783.488)"/><path d="M593.5 1540.85C651.683 1383.84 829.758 1297.15 940.422 1295.57 1030 1294.29 1064.13 1310.3 1083.76 1322.8L1239.5 1541.45 1144.19 1543.5C1109.98 1490.49 1030.53 1456.29 942.971 1456.88 853.629 1457.49 770.153 1487.9 738.856 1542.94L593.5 1540.85Z" stroke="#00A6D5" stroke-width="4.58333" stroke-miterlimit="8" fill="#00A6D5" fill-rule="evenodd"/><path d="M941.582 1020.57 1066.15 1270.42 1039.95 1259.73 933.408 1041.33 824.227 1286.64 726.351 1329.72 892.78 959.28C882.442 934.466 871.7 927.445 853.275 911.527 878.898 919.772 885.92 930.444 898.603 949.607L941.582 1020.57Z" stroke="#007DA5" stroke-width="4.58333" stroke-miterlimit="8" fill="#007DA5" fill-rule="evenodd"/></g></svg>