<svg width="36" height="36" xmlns="http://www.w3.org/2000/svg" xmlns:xlink="http://www.w3.org/1999/xlink" xml:space="preserve" overflow="hidden"><g transform="translate(-133 -354)"><path d="M150.104 379.552C150.104 380.493 149.342 381.255 148.401 381.255 147.461 381.255 146.699 380.493 146.699 379.552 146.699 378.612 147.461 377.85 148.401 377.85 149.342 377.85 150.104 378.612 150.104 379.552Z" stroke="#212428" stroke-width="0.375"/><path d="M151.75 385.125 151.75 383.422C151.744 383.157 151.621 382.908 151.413 382.744 150.923 382.367 150.364 382.091 149.766 381.934 149.315 381.795 148.847 381.725 148.375 381.724 147.904 381.731 147.436 381.802 146.984 381.934 146.393 382.109 145.836 382.383 145.337 382.744 145.129 382.908 145.006 383.157 145 383.422L145 385.125Z" stroke="#212428" stroke-width="0.375"/><path d="M157.551 379.552C157.551 380.493 156.789 381.255 155.849 381.255 154.908 381.255 154.146 380.493 154.146 379.552 154.146 378.612 154.908 377.85 155.849 377.85 156.789 377.85 157.551 378.612 157.551 379.552Z" stroke="#212428" stroke-width="0.375"/><path d="M159.25 385.125 159.25 383.422C159.244 383.157 159.121 382.908 158.913 382.744 158.423 382.367 157.864 382.091 157.266 381.934 156.815 381.795 156.347 381.725 155.875 381.724 155.404 381.731 154.936 381.802 154.484 381.934 153.893 382.109 153.336 382.383 152.837 382.744 152.629 382.908 152.506 383.157 152.5 383.422L152.5 385.125Z" stroke="#212428" stroke-width="0.375"/><path d="M165.051 379.552C165.051 380.493 164.289 381.255 163.349 381.255 162.408 381.255 161.646 380.493 161.646 379.552 161.646 378.612 162.408 377.85 163.349 377.85 164.289 377.85 165.051 378.612 165.051 379.552Z" stroke="#212428" stroke-width="0.375"/><path d="M166.75 385.125 166.75 383.422C166.744 383.157 166.621 382.908 166.413 382.744 165.923 382.367 165.364 382.091 164.766 381.934 164.315 381.795 163.847 381.725 163.375 381.724 162.904 381.731 162.436 381.802 161.984 381.934 161.393 382.109 160.836 382.383 160.337 382.744 160.129 382.908 160.006 383.157 160 383.422L160 385.125Z" stroke="#212428" stroke-width="0.375"/><path d="M143.283 363.81C143.283 365.04 142.285 366.038 141.055 366.038 139.825 366.038 138.827 365.04 138.827 363.81 138.827 362.58 139.825 361.582 141.055 361.582 142.285 361.582 143.283 362.58 143.283 363.81Z" stroke="#212428" stroke-width="0.375"/><path d="M154.191 362.951C153.971 362.734 153.617 362.734 153.396 362.951L148.551 367.796C148.164 367.687 147.748 367.793 147.46 368.074 147.381 368.152 145.982 370.44 145.982 370.44L145.562 368.651C145.507 368.421 145.392 368.209 145.229 368.036 144.538 367.478 143.742 367.062 142.889 366.814 142.285 366.685 141.672 366.611 141.055 366.592 140.433 366.602 139.815 366.695 139.217 366.87 138.356 367.096 137.558 367.514 136.881 368.092 136.717 368.264 136.601 368.476 136.548 368.707 136.548 368.707 134.931 375.495 134.931 375.608 134.931 376.229 135.435 376.733 136.056 376.733 136.554 376.72 136.984 376.381 137.114 375.9L138.284 371.059 138.284 386.625 140.5 386.625 140.5 376.609 141.625 376.609 141.625 386.625 143.837 386.625 143.837 370.987 144.25 372.75C144.279 372.872 144.36 372.975 144.471 373.031 144.902 373.362 145.428 373.547 145.971 373.56 146.325 373.61 146.676 373.45 146.871 373.151L149.159 369.401C149.305 369.171 149.36 368.894 149.312 368.625L154.188 363.75C154.408 363.53 154.41 363.173 154.191 362.951Z" stroke="#212428" stroke-width="0.375"/><path d="M161.875 357.75 143.5 357.75C142.672 357.75 142 358.422 142 359.25L142 360.6C142.573 360.756 143.092 361.068 143.5 361.5L143.5 359.25 161.875 359.25 161.875 371.625 149.076 371.625 148.161 373.125 161.875 373.125C162.703 373.125 163.375 372.453 163.375 371.625L163.375 359.25C163.375 358.422 162.703 357.75 161.875 357.75Z" stroke="#212428" stroke-width="0.375"/></g></svg>