<?xml version="1.0" standalone="yes"?>
<svg xmlns="http://www.w3.org/2000/svg" width="754" height="745">
<path style="fill:#097caa; stroke:none;" d="M0 0L0 745L754 745L754 0L0 0z"/>
<path style="fill:#fcfefd; stroke:none;" d="M334 92C365.096 100.488 397.79 115.596 420.525 138.888C439.319 158.142 449.465 181.105 460.781 205C472.626 230.012 484.982 254.827 496.54 280C537.639 369.507 581.158 457.953 623.219 547C635.977 574.009 649.227 600.855 661.691 628C670.31 646.77 677.912 667.57 689 685C699.067 677.277 705.128 661.809 708.881 650C715.589 628.894 718.638 608.087 717.089 586C716.333 575.212 715.193 564.94 710.626 555C661.697 448.499 613.307 341.503 562.258 236C547.39 205.271 534.132 173.738 519.258 143C512.15 128.309 506.745 113.386 495.711 101.015C464.996 66.5768 412.591 63.2511 371 75.9753C361.947 78.7451 352.906 81.4587 344 84.6952C339.769 86.2325 335.457 87.489 334 92M345 195C347.11 198.941 350.71 201.208 354 204.171C362.253 211.602 376.234 223.167 377.772 235C378.882 243.545 371.737 253.532 368.309 261C359.635 279.895 351.271 298.977 342.86 318C319.254 371.392 295.166 424.561 271.667 478C264.915 493.353 258.143 508.768 251.115 524C247.724 531.35 242.801 539.127 241 547C247.994 546.284 254.582 542.168 261 539.421C274.724 533.548 288.388 527.441 302 521.306C308.905 518.193 318.02 515.97 323.468 510.471C328.279 505.615 330.77 497.195 333.421 491C339.004 477.954 344.646 464.939 350.463 452C364.07 421.729 377.355 391.328 390.861 361C398.456 343.945 407.289 326.793 413 309L416 309C421.658 329.686 434.309 349.883 443.881 369C455.968 393.139 467.664 417.6 479.219 442C483.988 452.069 489.078 461.964 493.906 472C496.414 477.213 498.041 483.6 502.214 487.787C507.888 493.481 518.557 496.338 526 499C522.908 488.265 516.237 477.981 511.247 468L483.247 412C458.124 361.754 435.329 310.191 406.4 262C391.684 237.487 376.68 200.63 345 195M242 209C227.088 236.97 215.882 267.188 202.691 296C168.923 369.76 136.892 444.302 103 518C94.758 535.922 86.4242 553.84 78.716 572C75.4948 579.589 70.7646 587.077 68.4807 595C62.2187 616.724 63.5711 643.682 70.9005 665C73.5904 672.824 78.0197 679.822 82 687L85 687C96.9574 657.854 111.548 629.628 124.691 601C160.945 522.034 197.525 443.156 233.306 364C240.849 347.312 248.285 330.481 256.258 314C259.712 306.861 266.421 297.083 266.606 289C266.749 282.74 263.245 274.876 261.228 269C258.166 260.079 255.444 251.028 252.721 242C250.612 235.006 248.43 228.027 246.427 221C245.234 216.81 244.797 212.413 242 209M130 724C159.059 724 187.956 725 217 725C224.993 725 233.01 724.819 241 725.015C244.022 725.089 247.916 726.429 250.816 725.357C255.936 723.464 260.314 714.112 263.754 710C271.16 701.148 280.23 693.395 290 687.228C329.84 662.082 379.397 652.449 426 653.004C469.73 653.524 514.315 665.793 551 689.695C560.055 695.595 568.51 702.822 575.575 711C578.864 714.807 583.522 723.583 588.325 725.307C590.631 726.135 593.619 725.143 596 725.039C600.985 724.823 606.011 725 611 725C630.057 725 649.011 724.815 668 724C665.828 718.354 661.629 713.93 658.205 709L637.884 680C615.764 648.221 593.07 616.834 571.025 585C564.059 574.942 556.956 564.966 549.859 555C543.164 545.6 537.747 537.428 527 532.32C504.162 521.465 478.903 518.625 454 516.911C440.161 515.957 425.9 515.138 412 516.089C329.79 521.719 250.831 564.805 193.961 623.015C173.855 643.594 157.073 666.521 143.703 692C138.522 701.872 132.34 713.051 130 724z"/>
</svg>
