<svg width="36" height="36" xmlns="http://www.w3.org/2000/svg" xmlns:xlink="http://www.w3.org/1999/xlink" xml:space="preserve" overflow="hidden"><g transform="translate(-693 -253)"><path d="M701.625 258.25 720.375 258.25 720.375 283.75 701.625 283.75 701.625 258.25ZM699.375 286 722.625 286 722.625 256 699.375 256 699.375 286Z" stroke="#212428" stroke-width="0.375"/><path d="M711.75 261.625 718.125 261.625 718.125 263.125 711.75 263.125Z" stroke="#212428" stroke-width="0.375"/><path d="M711.75 267.625 718.125 267.625 718.125 269.125 711.75 269.125Z" stroke="#212428" stroke-width="0.375"/><path d="M711.75 279.625 718.125 279.625 718.125 281.125 711.75 281.125Z" stroke="#212428" stroke-width="0.375"/><path d="M711.75 273.625 718.125 273.625 718.125 275.125 711.75 275.125Z" stroke="#212428" stroke-width="0.375"/><path d="M709.425 260.8 708.375 259.75 705.9 262.225 704.925 261.25 703.875 262.3 705.9 264.325Z" stroke="#212428" stroke-width="0.375"/><path d="M709.425 266.8 708.375 265.75 705.9 268.225 704.925 267.25 703.875 268.3 705.9 270.325Z" stroke="#212428" stroke-width="0.375"/><path d="M709.425 272.8 708.375 271.75 705.9 274.225 704.925 273.25 703.875 274.3 705.9 276.325Z" stroke="#212428" stroke-width="0.375"/><path d="M709.425 278.725 708.375 277.675 705.9 280.15 704.925 279.175 703.875 280.225 705.9 282.25Z" stroke="#212428" stroke-width="0.375"/></g></svg>