<svg width="96" height="96" xmlns="http://www.w3.org/2000/svg" xmlns:xlink="http://www.w3.org/1999/xlink" xml:space="preserve" overflow="hidden"><g transform="translate(-675 -258)"><path d="M760.5 333.6 748 321.1C746.3 319.4 744 318.8 741.8 319.2L737.4 314.8C741.3 309.8 743.6 303.4 743.6 296.6 743.6 280.1 730.1 266.6 713.6 266.6 697.1 266.6 683.6 280.1 683.6 296.6 683.6 313.1 697.1 326.6 713.6 326.6 720.4 326.6 726.7 324.3 731.8 320.4L736.2 324.8C735.8 327 736.4 329.3 738.1 331L750.6 343.5C752 344.9 753.8 345.6 755.6 345.6 757.4 345.6 759.2 344.9 760.6 343.5 763.2 340.7 763.2 336.3 760.5 333.6ZM713.5 320.5C700.3 320.5 689.5 309.7 689.5 296.5 689.5 283.3 700.3 272.5 713.5 272.5 726.7 272.5 737.5 283.3 737.5 296.5 737.5 309.7 726.7 320.5 713.5 320.5Z"/></g></svg>