<svg width="264" height="264" xmlns="http://www.w3.org/2000/svg" xmlns:xlink="http://www.w3.org/1999/xlink" xml:space="preserve" overflow="hidden"><defs><clipPath id="clip0"><rect x="2030" y="1145" width="264" height="264"/></clipPath></defs><g clip-path="url(#clip0)" transform="translate(-2030 -1145)"><path d="M2030 1277C2030 1204.1 2089.1 1145 2162 1145 2234.9 1145 2294 1204.1 2294 1277 2294 1349.9 2234.9 1409 2162 1409 2089.1 1409 2030 1349.9 2030 1277Z" fill="#0D0D0D" fill-rule="evenodd"/><g><g><g><path d="M141.333 66.25C141.333 85.7641 125.514 101.583 106 101.583 86.486 101.583 70.6667 85.7641 70.6667 66.25 70.6667 46.736 86.486 30.9167 106 30.9167 125.514 30.9167 141.333 46.736 141.333 66.25Z" fill="#FFFFFF" transform="matrix(1 0 0 1.00472 2056 1164)"/><path d="M176.667 181.083 176.667 145.75C176.667 140.45 174.017 135.15 169.6 131.617 159.883 123.667 147.517 118.367 135.15 114.833 126.317 112.183 116.6 110.417 106 110.417 96.2834 110.417 86.5667 112.183 76.85 114.833 64.4834 118.367 52.1167 124.55 42.4 131.617 37.9834 135.15 35.3334 140.45 35.3334 145.75L35.3334 181.083 176.667 181.083Z" fill="#FFFFFF" transform="matrix(1 0 0 1.00472 2056 1164)"/></g></g></g></g></svg>