<svg width="36" height="36" xmlns="http://www.w3.org/2000/svg" xmlns:xlink="http://www.w3.org/1999/xlink" xml:space="preserve" overflow="hidden"><g transform="translate(-698 -367)"><path d="M726.886 388.199C726.886 389.81 725.58 391.116 723.969 391.116 722.357 391.116 721.051 389.81 721.051 388.199 721.051 386.587 722.357 385.281 723.969 385.281 725.58 385.281 726.886 386.587 726.886 388.199Z" stroke="#212428" stroke-width="0.375"/><path d="M711.328 388.199C711.328 389.81 710.021 391.116 708.41 391.116 706.799 391.116 705.492 389.81 705.492 388.199 705.492 386.587 706.799 385.281 708.41 385.281 710.021 385.281 711.328 386.587 711.328 388.199Z" stroke="#212428" stroke-width="0.375"/><path d="M729.222 393.644C728.381 392.989 727.407 392.525 726.369 392.283 725.588 392.055 724.782 391.928 723.969 391.908 723.155 391.906 722.347 392.032 721.573 392.283 720.798 392.489 720.058 392.807 719.375 393.228L719.24 393.381C720.33 393.676 721.35 394.186 722.24 394.881 722.939 395.395 723.347 396.215 723.335 397.082L723.335 397.75 729.804 397.75 729.804 394.814C729.817 394.351 729.599 393.913 729.222 393.644Z" stroke="#212428" stroke-width="0.375"/><path d="M709.055 397.082C709.056 396.238 709.444 395.44 710.109 394.919L710.15 394.881 710.199 394.848C711.099 394.207 712.095 393.713 713.15 393.385 713.075 393.306 713.004 393.224 712.936 393.141 712.271 392.755 711.554 392.466 710.806 392.283 710.027 392.055 709.222 391.929 708.41 391.908 707.595 391.905 706.785 392.032 706.01 392.283 704.986 392.565 704.02 393.026 703.156 393.644 702.792 393.924 702.577 394.355 702.571 394.814L702.571 397.75 709.055 397.75Z" stroke="#212428" stroke-width="0.375"/><path d="M710.352 400 710.352 397.082C710.354 396.624 710.571 396.192 710.938 395.916 711.8 395.295 712.766 394.834 713.791 394.555 714.565 394.303 715.374 394.176 716.188 394.18 717 394.199 717.807 394.325 718.588 394.555 719.627 394.794 720.601 395.259 721.441 395.916 721.819 396.183 722.038 396.62 722.026 397.082L722.026 400Z" stroke="#212428" stroke-width="0.375"/><path d="M719.105 390.467C719.105 392.079 717.799 393.385 716.188 393.385 714.576 393.385 713.27 392.079 713.27 390.467 713.27 388.856 714.576 387.55 716.188 387.55 717.799 387.55 719.105 388.856 719.105 390.467Z" stroke="#212428" stroke-width="0.375"/><path d="M728.375 370 704.094 370C703.265 370 702.594 370.672 702.594 371.5L702.594 379.75C702.594 380.578 703.265 381.25 704.094 381.25L709.625 381.25 709.625 383.5 711.987 381.25 714.537 381.25 716 383.5 717.35 381.25 720.013 381.25 722.375 383.5 722.375 381.25 728.375 381.25C729.203 381.25 729.875 380.578 729.875 379.75L729.875 371.5C729.875 370.672 729.203 370 728.375 370ZM706.344 373.375 723.875 373.375 723.875 374.125 706.344 374.125ZM720.125 377.875 706.344 377.875 706.344 377.125 720.125 377.125ZM726.125 376 706.344 376 706.344 375.25 726.125 375.25Z" stroke="#212428" stroke-width="0.375"/></g></svg>